# File created by Blade
# Date/Time:  Tue Jan 27 19:32:37 2015
# Frame Rate: 120.000 fps
#------------------------------------------------------
:FULLY-SPECIFIED
:DEGREES
1695
root 3.661623 32.209609 -0.388313 -5.737630 -3.325662 -0.540728
Spine 2.637033 7.460566 -3.372218
Head 14.238736 -52.786618 -0.516834
LeftShoulder -2.872908 -7.784605 25.815067
LeftArm 0.362983 41.838646 -99.712125
LeftForeArm 2.134229 -0.000000 9.781364
LeftHand 10.101692 -0.000000 -5.346613
LeftHandThumb1 -26.253704 0.000000 33.147579
RightShoulder -7.742076 0.707360 -28.988630
RightArm 25.568291 41.596460 84.393104
RightForeArm 5.267880 -0.000000 26.816184
RightHand 25.883298 0.000000 -21.900904
RightHandThumb1 -24.326973 -0.000000 -32.862282
LeftUpLeg 12.232955 3.881929 -0.675555
LeftLeg 2.883761 -0.000000 -0.000000
LeftFoot -22.566940 18.760232 -23.941646
LeftToeBase 15.855292 -0.000000 -0.000000
RightUpLeg 9.930870 -6.882382 1.816092
RightLeg 1.472341 -0.000000 -0.000000
RightFoot -12.631521 -12.042336 13.749002
RightToeBase 11.730087 -0.000000 -0.000000
1696
root 3.659917 32.209353 -0.388258 -5.743530 -3.318806 -0.534530
Spine 2.629717 7.460235 -3.394202
Head 14.439087 -52.998085 -0.593278
LeftShoulder -2.844419 -7.795790 25.838419
LeftArm 0.366307 41.791163 -99.692404
LeftForeArm 2.243992 -0.000000 9.731942
LeftHand 10.159334 -0.000000 -4.933060
LeftHandThumb1 -26.253704 0.000000 33.147579
RightShoulder -7.794946 0.596431 -29.094170
RightArm 25.629166 40.670573 84.277276
RightForeArm 5.470556 -0.000000 24.740659
RightHand 25.884440 -0.000000 -21.766724
RightHandThumb1 -24.326973 -0.000000 -32.862282
LeftUpLeg 12.244707 3.870968 -0.678907
LeftLeg 2.869073 -0.000000 -0.000000
LeftFoot -22.567236 18.748069 -23.967805
LeftToeBase 15.856214 -0.000000 -0.000000
RightUpLeg 9.943817 -6.907920 1.809399
RightLeg 1.460324 -0.000000 -0.000000
RightFoot -12.619461 -12.033744 13.724296
RightToeBase 11.718457 -0.000000 -0.000000
1697
root 3.657806 32.209350 -0.389624 -5.738143 -3.312104 -0.533993
Spine 2.613635 7.466295 -3.406653
Head 14.632894 -53.203430 -0.674139
LeftShoulder -2.827027 -7.806048 25.857487
LeftArm 0.388758 41.758182 -99.656139
LeftForeArm 2.314507 -0.000000 9.676135
LeftHand 10.149282 -0.000000 -4.918123
LeftHandThumb1 -26.253704 0.000000 33.147579
RightShoulder -7.860383 0.455514 -29.147454
RightArm 25.722373 39.706875 84.188332
RightForeArm 5.743761 0.000000 22.840210
RightHand 25.962795 -0.000000 -21.409638
RightHandThumb1 -24.326973 -0.000000 -32.862282
LeftUpLeg 12.235774 3.873756 -0.674233
LeftLeg 2.868256 -0.000000 -0.000000
LeftFoot -22.572922 18.777339 -23.925798
LeftToeBase 15.962384 -0.000000 -0.000000
RightUpLeg 9.938208 -6.923238 1.811531
RightLeg 1.457985 -0.000000 -0.000000
RightFoot -12.617329 -12.029259 13.714724
RightToeBase 11.729072 -0.000000 -0.000000
1698
root 3.655027 32.209651 -0.390405 -5.727478 -3.308691 -0.535458
Spine 2.587304 7.475605 -3.420599
Head 14.848257 -53.386378 -0.747179
LeftShoulder -2.818269 -7.794466 25.878822
LeftArm 0.431215 41.713541 -99.606108
LeftForeArm 2.383684 -0.000000 9.626497
LeftHand 10.119328 -0.000000 -4.962060
LeftHandThumb1 -26.253704 0.000000 33.147579
RightShoulder -7.959753 0.291397 -29.182009
RightArm 25.861732 38.701517 84.109956
RightForeArm 6.341888 0.000000 21.016376
RightHand 25.744573 0.000000 -20.844537
RightHandThumb1 -24.326973 -0.000000 -32.862282
LeftUpLeg 12.228478 3.911368 -0.660460
LeftLeg 2.857824 -0.000000 -0.000000
LeftFoot -22.531157 18.737150 -23.919028
LeftToeBase 15.854283 -0.000000 -0.000000
RightUpLeg 9.932919 -6.940811 1.814935
RightLeg 1.443577 -0.000000 -0.000000
RightFoot -12.611531 -12.029939 13.709900
RightToeBase 11.457958 -0.000000 -0.000000
1699
root 3.652728 32.209736 -0.391408 -5.720998 -3.298687 -0.532117
Spine 2.570132 7.484186 -3.431927
Head 15.086677 -53.593961 -0.864003
LeftShoulder -2.794128 -7.825080 25.887844
LeftArm 0.415942 41.659091 -99.580423
LeftForeArm 2.448271 0.000000 9.589934
LeftHand 10.148953 -0.000000 -5.042810
LeftHandThumb1 -26.253704 0.000000 33.147579
RightShoulder -8.106558 0.040289 -29.205006
RightArm 26.071373 37.508637 84.013917
RightForeArm 7.132877 -0.000000 19.166738
RightHand 26.125842 0.000000 -20.544800
RightHandThumb1 -24.326973 -0.000000 -32.862282
LeftUpLeg 12.221680 3.892739 -0.662706
LeftLeg 2.853120 -0.000000 -0.000000
LeftFoot -22.526672 18.735716 -23.938670
LeftToeBase 15.819406 -0.000000 -0.000000
RightUpLeg 9.932385 -6.929136 1.819718
RightLeg 1.433149 -0.000000 -0.000000
RightFoot -12.604285 -12.033938 13.695422
RightToeBase 11.740799 -0.000000 -0.000000
1700
root 3.649648 32.210329 -0.390530 -5.719186 -3.285380 -0.527350
Spine 2.549597 7.474745 -3.446419
Head 15.346066 -53.760750 -1.001816
LeftShoulder -2.794010 -7.783283 25.891018
LeftArm 0.493415 41.631096 -99.487705
LeftForeArm 2.519183 -0.000000 9.542871
LeftHand 10.117798 0.000000 -5.124542
LeftHandThumb1 -26.253704 0.000000 33.147579
RightShoulder -8.245850 -0.207994 -29.242729
RightArm 26.443322 36.570591 84.208374
RightForeArm 7.322265 -0.000000 17.366342
RightHand 26.469589 -0.000000 -19.688039
RightHandThumb1 -24.326973 -0.000000 -32.862282
LeftUpLeg 12.227092 3.889685 -0.660881
LeftLeg 2.835779 -0.000000 -0.000000
LeftFoot -22.532381 18.746873 -23.932408
LeftToeBase 15.952087 -0.000000 -0.000000
RightUpLeg 9.946915 -6.972957 1.813084
RightLeg 1.408686 -0.000000 -0.000000
RightFoot -12.586999 -12.008015 13.691334
RightToeBase 11.718548 -0.000000 -0.000000
1701
root 3.647845 32.210202 -0.391288 -5.707724 -3.265923 -0.522437
Spine 2.517594 7.462880 -3.458451
Head 15.609077 -53.905352 -1.146501
LeftShoulder -2.766510 -7.787719 25.893785
LeftArm 0.492051 41.562871 -99.445130
LeftForeArm 2.614127 -0.000000 9.512244
LeftHand 10.132585 0.000000 -5.085140
LeftHandThumb1 -26.253704 0.000000 33.147579
RightShoulder -8.383336 -0.449623 -29.283447
RightArm 26.798191 35.664889 84.414954
RightForeArm 7.793126 -0.000000 15.686206
RightHand 26.514468 -0.000000 -19.661370
RightHandThumb1 -24.326973 -0.000000 -32.862282
LeftUpLeg 12.211967 3.874184 -0.665256
LeftLeg 2.835977 -0.000000 -0.000000
LeftFoot -22.500633 18.730771 -23.933725
LeftToeBase 15.823380 -0.000000 -0.000000
RightUpLeg 9.940564 -6.980557 1.814789
RightLeg 1.400912 -0.000000 -0.000000
RightFoot -12.604359 -12.021796 13.702961
RightToeBase 11.801404 -0.000000 -0.000000
